<svg xmlns="http://www.w3.org/2000/svg" xmlns:xlink="http://www.w3.org/1999/xlink" width="1000" zoomAndPan="magnify" viewBox="0 0 750 337.499995" height="450" preserveAspectRatio="xMidYMid meet" version="1.0"><path fill="#ffffff" d="M 155.28125 167.347656 C 155.28125 138.921875 178.164062 116.59375 207.417969 116.59375 C 236.671875 116.59375 259.558594 138.914062 259.558594 167.347656 C 259.558594 195.78125 236.671875 218.105469 207.417969 218.105469 C 178.164062 218.105469 155.28125 195.78125 155.28125 167.347656 Z M 230.160156 167.347656 C 230.160156 154.171875 220.3125 144.191406 207.417969 144.191406 C 194.523438 144.191406 184.679688 154.171875 184.679688 167.347656 C 184.679688 180.523438 194.523438 190.507812 207.417969 190.507812 C 220.3125 190.507812 230.160156 180.523438 230.160156 167.347656 Z M 230.160156 167.347656 " fill-opacity="1" fill-rule="nonzero"/><path fill="#ffffff" d="M 341.5625 188.703125 C 341.5625 204.792969 328.113281 215.882812 307.3125 215.882812 L 267.65625 215.882812 L 267.65625 118.8125 L 307.175781 118.8125 C 326.039062 118.8125 338.242188 129.214844 338.242188 144.328125 C 338.242188 153.480469 333.109375 160.824219 324.511719 165.265625 C 335.046875 169.707031 341.5625 178.160156 341.5625 188.695312 Z M 296.21875 140.167969 L 296.21875 156.53125 L 301.351562 156.53125 C 306.757812 156.53125 310.507812 153.199219 310.507812 148.351562 C 310.507812 143.5 306.765625 140.167969 301.351562 140.167969 Z M 312.027344 186.066406 C 312.027344 181.070312 308.140625 177.605469 302.597656 177.605469 L 296.21875 177.605469 L 296.21875 194.519531 L 302.597656 194.519531 C 308.148438 194.519531 312.027344 191.054688 312.027344 186.058594 Z M 312.027344 186.066406 " fill-opacity="1" fill-rule="nonzero"/><path fill="#ffffff" d="M 348.816406 177.75 L 348.816406 118.8125 L 377.664062 118.8125 L 377.664062 176.640625 C 377.664062 185.101562 382.792969 190.507812 390.703125 190.507812 C 398.609375 190.507812 403.738281 185.101562 403.738281 176.640625 L 403.738281 118.8125 L 432.585938 118.8125 L 432.585938 178.167969 C 432.585938 201.742188 416.222656 217.683594 390.710938 217.683594 C 365.195312 217.683594 348.835938 201.597656 348.835938 177.75 Z M 348.816406 177.75 " fill-opacity="1" fill-rule="nonzero"/><path fill="#ffffff" d="M 440.851562 208.667969 L 444.457031 182.734375 C 455.96875 190.5 466.085938 193.554688 473.992188 193.554688 C 480.507812 193.554688 482.308594 190.644531 482.308594 188.148438 C 482.308594 185.238281 480.78125 182.882812 472.464844 180.105469 L 466.914062 178.304688 C 450.273438 172.898438 442.929688 161.523438 442.929688 147.792969 C 442.929688 130.042969 456.660156 116.59375 478.015625 116.59375 C 486.886719 116.59375 496.175781 118.675781 506.859375 123.109375 L 503.257812 148.625 C 492.855469 143.628906 483.984375 140.859375 477.324219 140.859375 C 472.054688 140.859375 470.117188 143.355469 470.117188 146.128906 C 470.117188 149.042969 472.199219 151.398438 479.269531 153.617188 L 484.820312 155.421875 C 503.820312 161.660156 510.335938 173.863281 510.335938 186.066406 C 510.335938 201.597656 500.070312 218.09375 474.554688 218.09375 C 461.515625 218.09375 450.289062 213.9375 440.863281 208.667969 Z M 440.851562 208.667969 " fill-opacity="1" fill-rule="nonzero"/><path fill="#ffffff" d="M 639.105469 199.796875 L 610.125 199.796875 L 605.683594 215.882812 L 574.902344 215.882812 L 607.484375 118.8125 L 641.734375 118.8125 L 674.320312 215.882812 L 643.535156 215.882812 L 639.097656 199.796875 Z M 632.582031 175.390625 L 624.675781 146.273438 L 616.632812 175.390625 Z M 632.582031 175.390625 " fill-opacity="1" fill-rule="nonzero"/><path fill="#ffffff" d="M 155.929688 215.882812 L 137.738281 182.269531 L 113.636719 176.367188 C 138.121094 175.929688 146.859375 167.910156 148.933594 151.445312 C 148.980469 151.050781 149.125 149.984375 149.125 149.554688 C 149.125 131.949219 137.914062 118.820312 113.644531 118.820312 L 77.039062 118.820312 L 77.039062 215.890625 L 105.601562 215.890625 L 105.601562 179.558594 L 104.121094 176.367188 L 122.519531 215.882812 L 155.941406 215.882812 Z M 105.59375 162.636719 L 105.59375 141.5625 L 108.925781 141.5625 C 117.242188 141.5625 121.683594 145.855469 121.683594 152.097656 C 121.683594 158.339844 117.242188 162.636719 108.925781 162.636719 Z M 105.59375 162.636719 " fill-opacity="1" fill-rule="nonzero"/><path fill="#ffffff" d="M 580.84375 118.8125 L 513.730469 118.8125 L 509.988281 145.71875 L 539.292969 145.71875 L 532.871094 153.085938 L 532.871094 215.882812 L 561.710938 215.882812 L 561.710938 145.71875 L 584.59375 145.71875 Z M 580.84375 118.8125 " fill-opacity="1" fill-rule="nonzero"/><path fill="#ffffff" d="M 532.785156 153.183594 L 532.871094 153.085938 " fill-opacity="1" fill-rule="nonzero"/></svg>