<svg xmlns="http://www.w3.org/2000/svg" xmlns:xlink="http://www.w3.org/1999/xlink" width="1000" zoomAndPan="magnify" viewBox="0 0 750 337.499995" height="450" preserveAspectRatio="xMidYMid meet" version="1.0"><path fill="#000000" d="M 155.214844 167.160156 C 155.214844 138.738281 178.09375 116.414062 207.34375 116.414062 C 236.59375 116.414062 259.472656 138.730469 259.472656 167.160156 C 259.472656 195.589844 236.59375 217.90625 207.34375 217.90625 C 178.09375 217.90625 155.214844 195.589844 155.214844 167.160156 Z M 230.078125 167.160156 C 230.078125 153.984375 220.234375 144.007812 207.34375 144.007812 C 194.453125 144.007812 184.609375 153.984375 184.609375 167.160156 C 184.609375 180.332031 194.453125 190.3125 207.34375 190.3125 C 220.234375 190.3125 230.078125 180.332031 230.078125 167.160156 Z M 230.078125 167.160156 " fill-opacity="1" fill-rule="nonzero"/><path fill="#000000" d="M 341.460938 188.511719 C 341.460938 204.59375 328.015625 215.683594 307.21875 215.683594 L 267.570312 215.683594 L 267.570312 118.632812 L 307.082031 118.632812 C 325.941406 118.632812 338.140625 129.03125 338.140625 144.144531 C 338.140625 153.292969 333.011719 160.636719 324.414062 165.078125 C 334.949219 169.515625 341.460938 177.96875 341.460938 188.503906 Z M 296.128906 139.984375 L 296.128906 156.34375 L 301.261719 156.34375 C 306.664062 156.34375 310.410156 153.011719 310.410156 148.164062 C 310.410156 143.316406 306.671875 139.984375 301.261719 139.984375 Z M 311.933594 185.875 C 311.933594 180.878906 308.046875 177.414062 302.507812 177.414062 L 296.128906 177.414062 L 296.128906 194.324219 L 302.507812 194.324219 C 308.054688 194.324219 311.933594 190.859375 311.933594 185.867188 Z M 311.933594 185.875 " fill-opacity="1" fill-rule="nonzero"/><path fill="#000000" d="M 348.714844 177.558594 L 348.714844 118.632812 L 377.554688 118.632812 L 377.554688 176.449219 C 377.554688 184.910156 382.6875 190.3125 390.589844 190.3125 C 398.496094 190.3125 403.628906 184.910156 403.628906 176.449219 L 403.628906 118.632812 L 432.46875 118.632812 L 432.46875 177.976562 C 432.46875 201.546875 416.109375 217.488281 390.601562 217.488281 C 365.089844 217.488281 348.734375 201.402344 348.734375 177.558594 Z M 348.714844 177.558594 " fill-opacity="1" fill-rule="nonzero"/><path fill="#000000" d="M 440.734375 208.472656 L 444.335938 182.542969 C 455.84375 190.304688 465.960938 193.359375 473.867188 193.359375 C 480.382812 193.359375 482.183594 190.449219 482.183594 187.957031 C 482.183594 185.046875 480.65625 182.6875 472.339844 179.914062 L 466.789062 178.113281 C 450.152344 172.707031 442.808594 161.335938 442.808594 147.609375 C 442.808594 129.859375 456.539062 116.414062 477.890625 116.414062 C 486.757812 116.414062 496.046875 118.496094 506.726562 122.925781 L 503.125 148.4375 C 492.726562 143.441406 483.855469 140.675781 477.199219 140.675781 C 471.929688 140.675781 469.992188 143.167969 469.992188 145.945312 C 469.992188 148.855469 472.074219 151.210938 479.144531 153.429688 L 484.691406 155.234375 C 503.6875 161.472656 510.203125 173.671875 510.203125 185.875 C 510.203125 201.402344 499.941406 217.898438 474.429688 217.898438 C 461.394531 217.898438 450.167969 213.738281 440.742188 208.472656 Z M 440.734375 208.472656 " fill-opacity="1" fill-rule="nonzero"/><path fill="#000000" d="M 638.949219 199.601562 L 609.972656 199.601562 L 605.535156 215.683594 L 574.757812 215.683594 L 607.335938 118.632812 L 641.578125 118.632812 L 674.15625 215.683594 L 643.378906 215.683594 L 638.941406 199.601562 Z M 632.425781 175.203125 L 624.519531 146.089844 L 616.480469 175.203125 Z M 632.425781 175.203125 " fill-opacity="1" fill-rule="nonzero"/><path fill="#000000" d="M 155.867188 215.683594 L 137.675781 182.078125 L 113.582031 176.175781 C 138.0625 175.742188 146.792969 167.722656 148.871094 151.261719 C 148.917969 150.867188 149.0625 149.796875 149.0625 149.371094 C 149.0625 131.765625 137.851562 118.640625 113.589844 118.640625 L 76.988281 118.640625 L 76.988281 215.695312 L 105.546875 215.695312 L 105.546875 179.367188 L 104.066406 176.175781 L 122.460938 215.683594 L 155.875 215.683594 Z M 105.539062 162.445312 L 105.539062 141.375 L 108.867188 141.375 C 117.183594 141.375 121.621094 145.671875 121.621094 151.910156 C 121.621094 158.152344 117.183594 162.445312 108.867188 162.445312 Z M 105.539062 162.445312 " fill-opacity="1" fill-rule="nonzero"/><path fill="#000000" d="M 580.699219 118.632812 L 513.597656 118.632812 L 509.855469 145.535156 L 539.152344 145.535156 L 532.734375 152.902344 L 532.734375 215.683594 L 561.566406 215.683594 L 561.566406 145.535156 L 584.445312 145.535156 Z M 580.699219 118.632812 " fill-opacity="1" fill-rule="nonzero"/><path fill="#000000" d="M 532.648438 152.996094 L 532.734375 152.902344 " fill-opacity="1" fill-rule="nonzero"/></svg>